HIERARCHY
ROOT Hips
{
  OFFSET -21.6994 31.6921 0
  CHANNELS 6 Xposition Yposition Zposition Zrotation Xrotation Yrotation
  JOINT Bip01_Pelvis
  {
    OFFSET 0 0 0
    CHANNELS 6 Xposition Yposition Zposition Zrotation Xrotation Yrotation
    JOINT BN_Tail_01
    {
      OFFSET -7.25226 -1.74978 0
      CHANNELS 6 Xposition Yposition Zposition Zrotation Xrotation Yrotation
      JOINT BN_Tail_02
      {
        OFFSET 15.788 0 0
        CHANNELS 6 Xposition Yposition Zposition Zrotation Xrotation Yrotation
        JOINT BN_Tail_03
        {
          OFFSET 16.0015 0 0
          CHANNELS 6 Xposition Yposition Zposition Zrotation Xrotation Yrotation
          JOINT BN_Tail_04
          {
            OFFSET 16.1689 0 0
            CHANNELS 6 Xposition Yposition Zposition Zrotation Xrotation Yrotation
            End Site
            {
              OFFSET 0 0 0
            }
          }
        }
      }
    }
    JOINT Bip01_Spine
    {
      OFFSET 6.38383 2.70859 0.585432
      CHANNELS 6 Xposition Yposition Zposition Zrotation Xrotation Yrotation
      JOINT BN_Mane_02
      {
        OFFSET 6.12662 8.45826 0
        CHANNELS 6 Xposition Yposition Zposition Zrotation Xrotation Yrotation
        End Site
        {
          OFFSET 0 0 0
        }
      }
      JOINT Bip01_R_Thigh
      {
        OFFSET -7.04074 -2.18223 -5.47025
        CHANNELS 6 Xposition Yposition Zposition Zrotation Xrotation Yrotation
        JOINT Bip01_R_Calf
        {
          OFFSET 13.6591 0 0
          CHANNELS 6 Xposition Yposition Zposition Zrotation Xrotation Yrotation
          JOINT Bip01_R_HorseLink
          {
            OFFSET 9.07516 0 0
            CHANNELS 6 Xposition Yposition Zposition Zrotation Xrotation Yrotation
            JOINT Bip01_R_Foot
            {
              OFFSET 8.13856 0 0
              CHANNELS 6 Xposition Yposition Zposition Zrotation Xrotation Yrotation
              JOINT Bip01_R_Toe0
              {
                OFFSET 3.79737 6.30086 0
                CHANNELS 6 Xposition Yposition Zposition Zrotation Xrotation Yrotation
                JOINT Bip01_R_Toe0Nub
                {
                  OFFSET 0.838764 0 0
                  CHANNELS 6 Xposition Yposition Zposition Zrotation Xrotation Yrotation
                  End Site
                  {
                    OFFSET 0 0 0
                  }
                }
              }
            }
          }
        }
      }
      JOINT Bip01_L_Thigh
      {
        OFFSET -6.18667 -2.14873 5.3508
        CHANNELS 6 Xposition Yposition Zposition Zrotation Xrotation Yrotation
        JOINT Bip01_L_Calf
        {
          OFFSET 13.6591 0 0
          CHANNELS 6 Xposition Yposition Zposition Zrotation Xrotation Yrotation
          JOINT Bip01_L_HorseLink
          {
            OFFSET 9.07515 0 0
            CHANNELS 6 Xposition Yposition Zposition Zrotation Xrotation Yrotation
            JOINT Bip01_L_Foot
            {
              OFFSET 8.13856 0 0
              CHANNELS 6 Xposition Yposition Zposition Zrotation Xrotation Yrotation
              JOINT Bip01_L_Toe0
              {
                OFFSET 3.79737 6.30086 0
                CHANNELS 6 Xposition Yposition Zposition Zrotation Xrotation Yrotation
                JOINT Bip01_L_Toe0Nub
                {
                  OFFSET 0.838764 0 0
                  CHANNELS 6 Xposition Yposition Zposition Zrotation Xrotation Yrotation
                  End Site
                  {
                    OFFSET 0 0 0
                  }
                }
              }
            }
          }
        }
      }
      JOINT Bip01_Spine1
      {
        OFFSET 12.1687 -0.0105438 0
        CHANNELS 6 Xposition Yposition Zposition Zrotation Xrotation Yrotation
        JOINT BN_Mane_R_01
        {
          OFFSET -0.157498 5.09008 -6.54008
          CHANNELS 6 Xposition Yposition Zposition Zrotation Xrotation Yrotation
          End Site
          {
            OFFSET 0 0 0
          }
        }
        JOINT BN_Mane_R_02
        {
          OFFSET -0.1575 5.09007 6.54
          CHANNELS 6 Xposition Yposition Zposition Zrotation Xrotation Yrotation
          End Site
          {
            OFFSET 0 0 0
          }
        }
        JOINT BN_Mane_01
        {
          OFFSET 8.29709 8.50414 0
          CHANNELS 6 Xposition Yposition Zposition Zrotation Xrotation Yrotation
          End Site
          {
            OFFSET 0 0 0
          }
        }
        JOINT Bip01_Spine2
        {
          OFFSET 13.2802 -0.0100708 1.51992e-005
          CHANNELS 6 Xposition Yposition Zposition Zrotation Xrotation Yrotation
          JOINT Bip01_Neck
          {
            OFFSET 12.4891 -6.66662 0
            CHANNELS 6 Xposition Yposition Zposition Zrotation Xrotation Yrotation
            JOINT Bip01_R_Clavicle
            {
              OFFSET -7.4542 -2.82621 -1.17874
              CHANNELS 6 Xposition Yposition Zposition Zrotation Xrotation Yrotation
              JOINT Bip01_R_UpperArm
              {
                OFFSET 13.2557 0 0
                CHANNELS 6 Xposition Yposition Zposition Zrotation Xrotation Yrotation
                JOINT Bip01_R_Forearm
                {
                  OFFSET 12.8897 0 0
                  CHANNELS 6 Xposition Yposition Zposition Zrotation Xrotation Yrotation
                  JOINT Bip01_R_Hand
                  {
                    OFFSET 11.2622 0 0
                    CHANNELS 6 Xposition Yposition Zposition Zrotation Xrotation Yrotation
                    JOINT Bip01_R_Finger0
                    {
                      OFFSET 3.98015 -0.208661 -0.0949803
                      CHANNELS 6 Xposition Yposition Zposition Zrotation Xrotation Yrotation
                      JOINT Bip01_R_Finger0Nub
                      {
                        OFFSET 6.57561 0 0
                        CHANNELS 6 Xposition Yposition Zposition Zrotation Xrotation Yrotation
                        End Site
                        {
                          OFFSET 0 0 0
                        }
                      }
                    }
                  }
                }
              }
            }
            JOINT Bip01_L_Clavicle
            {
              OFFSET -7.4541 -2.82679 1.17708
              CHANNELS 6 Xposition Yposition Zposition Zrotation Xrotation Yrotation
              JOINT Bip01_L_UpperArm
              {
                OFFSET 13.2558 0 0
                CHANNELS 6 Xposition Yposition Zposition Zrotation Xrotation Yrotation
                JOINT Bip01_L_Forearm
                {
                  OFFSET 12.8897 0 0
                  CHANNELS 6 Xposition Yposition Zposition Zrotation Xrotation Yrotation
                  JOINT Bip01_L_Hand
                  {
                    OFFSET 11.2622 0 0
                    CHANNELS 6 Xposition Yposition Zposition Zrotation Xrotation Yrotation
                    JOINT Bip01_L_Finger0
                    {
                      OFFSET 3.98014 -0.20866 0.0949764
                      CHANNELS 6 Xposition Yposition Zposition Zrotation Xrotation Yrotation
                      JOINT Bip01_L_Finger0Nub
                      {
                        OFFSET 6.57562 0 0
                        CHANNELS 6 Xposition Yposition Zposition Zrotation Xrotation Yrotation
                        End Site
                        {
                          OFFSET 0 0 0
                        }
                      }
                    }
                  }
                }
              }
            }
            JOINT Bip01_Neck1
            {
              OFFSET 4.19352 -0.00332451 0
              CHANNELS 6 Xposition Yposition Zposition Zrotation Xrotation Yrotation
              JOINT Bip01_Head
              {
                OFFSET 4.17604 0.298252 0
                CHANNELS 6 Xposition Yposition Zposition Zrotation Xrotation Yrotation
                JOINT BN_Eye_R_01
                {
                  OFFSET 6.53258 -3.90694 -2.55361
                  CHANNELS 6 Xposition Yposition Zposition Zrotation Xrotation Yrotation
                  End Site
                  {
                    OFFSET 0 0 0
                  }
                }
                JOINT BN_Eye_L_01
                {
                  OFFSET 6.5326 -3.90694 2.55371
                  CHANNELS 6 Xposition Yposition Zposition Zrotation Xrotation Yrotation
                  End Site
                  {
                    OFFSET 0 0 0
                  }
                }
                JOINT BN_Ear_R_01
                {
                  OFFSET 1.75934 -4.1584 -4.45634
                  CHANNELS 6 Xposition Yposition Zposition Zrotation Xrotation Yrotation
                  End Site
                  {
                    OFFSET 0 0 0
                  }
                }
                JOINT BN_Ear_L_01
                {
                  OFFSET 1.75933 -4.15841 4.45616
                  CHANNELS 6 Xposition Yposition Zposition Zrotation Xrotation Yrotation
                  End Site
                  {
                    OFFSET 0 0 0
                  }
                }
                JOINT BN_Beard_L_01
                {
                  OFFSET 11.2964 -1.06183 2.32054
                  CHANNELS 6 Xposition Yposition Zposition Zrotation Xrotation Yrotation
                  End Site
                  {
                    OFFSET 0 0 0
                  }
                }
                JOINT BN_Beard_R_01
                {
                  OFFSET 11.2964 -1.06182 -2.32036
                  CHANNELS 6 Xposition Yposition Zposition Zrotation Xrotation Yrotation
                  End Site
                  {
                    OFFSET 0 0 0
                  }
                }
                JOINT BN_Mouth_0
                {
                  OFFSET 1.3149 1.30001 0
                  CHANNELS 6 Xposition Yposition Zposition Zrotation Xrotation Yrotation
                  End Site
                  {
                    OFFSET 0 0 0
                  }
                }
                JOINT Bip01_HeadNub
                {
                  OFFSET 12.6869 0 0
                  CHANNELS 6 Xposition Yposition Zposition Zrotation Xrotation Yrotation
                  End Site
                  {
                    OFFSET 0 0 0
                  }
                }
              }
            }
          }
        }
      }
    }
  }
}
MOTION
Frames:	4
Frame Time:	0.0333333
-21.6979 31.1582 1.09127e-010 -180 -90 -90 0 8.52651e-014 0 -89.9975 -0.438841 -90.0122 -7.25225 -1.74978 1.45506e-011 -62.1583 -6.31263 174.597 15.788 -3.55271e-014 -0.000508308 -21.0664 2.59776 9.63359 16.0015 -8.52651e-014 -0.000591278 -27.304 -5.05726 15.832 16.1689 -1.90735e-006 -0.000587463 -9.19342 -11.154 21.2891 6.42965 2.65894 -0.00196928 -4.70233 -0.0012392 0.0150652 6.12662 8.45826 -3.27407e-011 -89.0519 -0.0192412 179.847 -6.18902 -3.17715 -5.42739 -110.438 1.64405 177.349 13.6591 9.53674e-007 -4.76837e-007 -60.9047 4.82359e-006 8.84388e-006 9.07515 -1.90735e-006 4.76837e-007 50.0936 -0.00202665 0.00242335 8.13855 -1.03029e-013 0.00115347 -12.9042 0.361585 2.9659 3.79727 6.30092 0.00108528 89.9849 5.98736e-009 -5.10183e-009 0.838764 7.45058e-009 0 6.37698e-010 5.97742e-009 -1.78151e-009 -6.19215 -3.17771 5.42737 -89.386 15.9073 -178.385 13.6591 1.90735e-006 1.77636e-015 -53.61 5.93413e-006 9.0418e-006 9.07516 -1.90735e-006 -9.53674e-007 51.3682 6.19638e-006 -8.35505e-006 8.13855 0 -1.77636e-015 -0.515691 -14.3373 -0.941781 3.79736 6.30085 -1.9074e-006 89.8177 0.00398064 -30.2984 0.838766 -2.98023e-008 -2.66453e-015 -179.96 -6.30031e-005 4.46671e-005 12.1713 -0.0104313 -7.63976e-011 9.79175 9.88263e-013 4.48078e-011 -0.157495 5.09007 -6.54008 -92.9847 0.102178 -168.317 -0.1575 5.09007 6.54 87.1734 -0.0280967 11.6134 8.29709 8.50413 3.63816e-011 -91.7924 0.0940397 -179.866 13.2796 -0.00996971 -9.09495e-011 -11.9883 7.71872e-006 1.18805e-005 12.4881 -6.66637 -5.09319e-011 -23.0225 -1.59246e-005 -6.76701e-006 -6.16424 -5.05314 -1.17794 -157.035 -51.3478 102.632 13.2557 1.90735e-006 7.10543e-015 49.4162 47.0449 -107.085 12.8897 4.76837e-007 -3.57628e-007 -25.1485 -1.55224e-005 -7.72751e-006 11.2622 -1.77636e-015 -1.19209e-007 -118.471 75.5567 98.407 3.98015 -0.208661 -0.0949755 -3.13113 0.764284 -72.223 6.57561 -1.19209e-007 -2.38419e-007 179.96 1.72754e-005 4.4627e-005 -6.16424 -5.05314 1.17789 -157.03 49.0723 -103.15 13.2557 -1.90735e-006 0 61.7367 -59.2606 119.656 12.8897 2.86102e-006 -2.38418e-007 -32.0345 3.83401e-006 2.15935e-006 11.2622 -1.90735e-006 -1.19209e-007 -130.78 -80.6729 -123.019 3.98015 -0.208664 0.0949726 -12.3348 0.665452 66.0154 6.57562 -1.19209e-007 3.10862e-015 -9.00963e-009 -5.58797e-008 1.22227e-008 4.19292 -0.0032177 -1.20053e-010 -15.6214 9.64796e-006 2.69758e-006 4.17603 0.298255 1.16415e-010 63.862 0.559249 -0.0977714 6.53259 -3.90693 -2.55361 133.025 18.1401 163.594 6.5326 -3.90696 2.55371 -46.9761 18.1112 -16.4184 1.75934 -4.1584 -4.45634 24.7986 -39.7537 142.552 1.75932 -4.15841 4.45617 -155.183 -39.7557 -37.415 11.2964 -1.06183 2.32054 151.282 -2.31449 -90.1616 11.2964 -1.06182 -2.32035 -28.7034 -2.35235 90.1033 1.31489 1.3 -2.98023e-008 -175.49 -0.0385132 -179.999 12.6869 7.10543e-015 -1.66533e-016 -6.85119e-007 2.00305e-008 -8.59426e-010 
-21.7059 31.1476 -3.85658e-010 -180 -90 -90 0 8.52651e-014 0 -89.9979 -0.279017 -89.9654 -7.25225 -1.74978 1.45519e-011 -62.0448 -6.31687 174.481 15.788 -7.10543e-015 -0.000508308 -21.0794 2.63761 9.22728 16.0015 1.13687e-013 -0.000591278 -27.3961 -5.03438 16.1776 16.1689 -1.90735e-006 -0.000587463 -9.07755 -10.8137 22.76 6.42198 2.67769 0.00359664 -4.5475 0.0024946 -0.0313645 6.12662 8.45826 -3.27412e-011 -88.8076 -0.0236964 -179.628 -6.19321 -3.17914 -5.42739 -110.499 1.67377 177.332 13.6591 9.53674e-007 -4.76837e-007 -61 4.80889e-006 8.85189e-006 9.07515 -1.90735e-006 4.76837e-007 50.1122 -0.00202587 0.00242401 8.13855 2.20268e-013 0.00115347 -12.907 0.36144 2.96592 3.79727 6.30092 0.00108528 90.0012 5.98872e-009 -5.10036e-009 0.838764 7.45058e-009 1.77636e-015 6.37698e-010 5.97742e-009 -1.78151e-009 -6.18669 -3.1784 5.42737 -89.4203 15.9063 -178.378 13.6591 1.90735e-006 0 -53.7238 5.27338e-006 9.52791e-006 9.07516 -1.90735e-006 -9.53674e-007 51.449 6.66632e-006 -7.97927e-006 8.13855 3.55271e-015 0 -0.514093 -14.3373 -0.937389 3.79736 6.30085 -1.90726e-006 89.8249 0.00443371 -30.2984 0.838766 -2.98023e-008 -1.77636e-015 -179.96 -6.30031e-005 4.46671e-005 12.1713 -0.0104313 -7.63976e-011 9.81104 1.01095e-012 4.4812e-011 -0.157495 5.09007 -6.54008 -92.7573 0.131682 -167.69 -0.1575 5.09007 6.54 87.4236 0.0463729 12.1467 8.29709 8.50413 3.63812e-011 -91.5901 0.110791 -179.563 13.2796 -0.00996971 -9.09495e-011 -11.9856 7.71927e-006 1.18801e-005 12.4881 -6.66637 -5.09299e-011 -23.0225 -1.59246e-005 -6.76701e-006 -6.16424 -5.05314 -1.17794 -157.035 -51.3471 102.655 13.2557 1.90735e-006 -1.77636e-014 49.3988 46.9721 -107.079 12.8897 4.76837e-007 -3.57628e-007 -25.333 -1.5678e-005 -7.39459e-006 11.2622 -7.10543e-015 -1.19209e-007 -118.351 75.5537 98.3922 3.98015 -0.208661 -0.0949755 -3.13032 0.767596 -72.2836 6.57561 -1.19209e-007 -2.38419e-007 179.96 1.72754e-005 4.4627e-005 -6.16424 -5.05314 1.17789 -157.03 49.0724 -103.15 13.2557 -1.90735e-006 1.06581e-014 61.6635 -59.2061 119.591 12.8897 2.86102e-006 -2.38419e-007 -32.2598 -1.07784e-006 9.94903e-006 11.2622 -1.90735e-006 -1.19209e-007 -130.603 -80.6712 -122.966 3.98015 -0.208664 0.0949726 -12.3343 0.664194 66.0189 6.57562 -1.19209e-007 8.88178e-015 -9.00963e-009 -5.58797e-008 1.22227e-008 4.19292 -0.0032177 -1.20053e-010 -15.7024 9.64414e-006 2.71121e-006 4.17603 0.298255 1.16415e-010 63.9112 0.54587 -0.104761 6.53259 -3.90693 -2.55361 133.025 18.1401 163.594 6.5326 -3.90696 2.55371 -46.9761 18.1112 -16.4184 1.75934 -4.1584 -4.45634 24.7992 -39.7662 142.92 1.75932 -4.15841 4.45617 -155.181 -39.77 -37.0252 11.2964 -1.06183 2.32054 151.282 -2.32458 -90.1713 11.2964 -1.06182 -2.32035 -28.703 -2.36958 90.1124 1.31489 1.3 -2.98023e-008 -175.518 -0.0396271 -179.998 12.6869 0 0 -6.85119e-007 2.00305e-008 -8.59426e-010 
-21.7149 31.1353 -9.51176e-010 -180 -90 -90 0 8.52651e-014 0 -89.9975 -0.0945397 -89.9112 -7.25225 -1.74978 1.45519e-011 -61.9105 -6.32128 174.38 15.788 7.10543e-015 -0.000508308 -21.0944 2.68914 8.72352 16.0015 3.19744e-013 -0.000591278 -27.4844 -5.01037 16.5236 16.1689 -1.90735e-006 -0.000587463 -9.33386 -10.126 24.0428 6.41363 2.69789 0.00952246 -4.38246 0.00651281 -0.0849816 6.12662 8.45826 -3.27414e-011 -88.5282 -0.0233584 -179.106 -6.19702 -3.18212 -5.42739 -110.55 1.63007 177.365 13.6591 9.53674e-007 -4.76837e-007 -61.1045 4.79272e-006 8.86062e-006 9.07515 -1.90735e-006 4.76837e-007 50.1827 -0.00202288 0.0024265 8.13855 2.8777e-013 0.00115347 -12.9171 0.360917 2.96598 3.79727 6.30092 0.00108528 89.9716 5.98642e-009 -5.10287e-009 0.838764 7.45058e-009 1.77636e-015 6.37698e-010 5.97742e-009 -1.78151e-009 -6.18084 -3.17971 5.42737 -89.4483 15.9057 -178.352 13.6591 1.90735e-006 -1.77636e-015 -53.8525 5.90417e-006 9.06652e-006 9.07516 -1.90735e-006 -9.53674e-007 51.5419 1.40088e-005 -2.14697e-006 8.13855 -3.55271e-015 0 -0.513132 -14.3374 -0.933657 3.79736 6.30085 -1.90709e-006 89.832 0.00488852 -30.2983 0.838766 -2.98023e-008 2.66453e-015 -179.96 -6.30031e-005 4.46671e-005 12.1713 -0.0104313 -7.63976e-011 9.84254 1.03545e-012 4.48101e-011 -0.157495 5.09007 -6.54008 -92.5281 0.164014 -167.058 -0.1575 5.09007 6.54 87.6734 0.123689 12.6951 8.29709 8.50413 3.63817e-011 -91.386 0.128804 -179.258 13.2796 -0.00996971 -9.09495e-011 -11.962 7.72417e-006 1.18769e-005 12.4881 -6.66637 -5.09301e-011 -23.0225 -1.59246e-005 -6.76698e-006 -6.16424 -5.05314 -1.17794 -157.035 -51.3459 102.675 13.2557 1.90735e-006 7.10543e-015 49.3878 46.9167 -107.077 12.8897 4.76837e-007 -3.57628e-007 -25.507 -1.54705e-005 -7.82841e-006 11.2622 1.77636e-015 -1.19209e-007 -118.23 75.5506 98.3771 3.98015 -0.208661 -0.0949755 -3.12941 0.771303 -72.3514 6.57561 -1.19209e-007 -2.38419e-007 179.96 1.72754e-005 4.4627e-005 -6.16424 -5.05314 1.17789 -157.03 49.0723 -103.15 13.2557 -1.90735e-006 3.55271e-015 61.594 -59.1555 119.53 12.8897 2.86102e-006 -2.38419e-007 -32.4904 4.27042e-006 1.48907e-006 11.2622 -1.90735e-006 -1.19209e-007 -130.432 -80.6825 -122.863 3.98015 -0.208664 0.0949726 -12.3548 0.676602 65.9454 6.57562 -1.19209e-007 -5.77316e-015 -9.00963e-009 -5.58797e-008 1.22227e-008 4.19292 -0.0032177 -1.20053e-010 -15.8013 9.63944e-006 2.72785e-006 4.17603 0.298255 1.16415e-010 63.9314 0.533391 -0.111041 6.53259 -3.90693 -2.55361 133.025 18.1401 163.594 6.5326 -3.90696 2.55371 -46.9761 18.1111 -16.4185 1.75934 -4.1584 -4.45634 24.8 -39.7788 143.292 1.75932 -4.15841 4.45617 -155.179 -39.7844 -36.6315 11.2964 -1.06183 2.32054 151.283 -2.33481 -90.1812 11.2964 -1.06182 -2.32035 -28.7027 -2.38674 90.1216 1.31489 1.3 -2.98023e-008 -175.547 -0.0407562 -179.998 12.6869 0 1.11022e-016 -6.85119e-007 2.00305e-008 -8.59426e-010 
-21.727 31.1177 -1.72622e-009 -180 -90 -90 0 8.52651e-014 0 -89.9936 0.113313 -89.8479 -7.25225 -1.74978 1.45518e-011 -61.7562 -6.32677 174.294 15.788 -1.42109e-014 -0.000508308 -21.1145 2.7459 8.12253 16.0015 4.68958e-013 -0.000591278 -27.5698 -4.98176 16.875 16.1689 -1.90735e-006 -0.000587463 -9.60785 -9.43738 25.3387 6.40357 2.72166 0.0163085 -4.20384 0.0105217 -0.143147 6.12662 8.45826 -3.27388e-011 -88.246 -0.0203947 -178.579 -6.20087 -3.18512 -5.42739 -110.591 1.63648 177.365 13.6591 9.53674e-007 -4.76837e-007 -61.2218 4.77459e-006 8.87039e-006 9.07515 -1.90735e-006 4.76837e-007 50.2846 -0.00201856 0.0024301 8.13855 5.86198e-013 0.00115347 -12.94 0.359731 2.96612 3.79727 6.30092 0.00108528 89.9416 5.98914e-009 -5.09957e-009 0.838764 7.45058e-009 -8.88178e-016 6.37697e-010 5.97742e-009 -1.78151e-009 -6.17329 -3.18281 5.42737 -89.4708 15.9052 -178.337 13.6591 1.90735e-006 3.55271e-015 -54.0049 -2.2238e-006 1.49724e-005 9.07516 -1.90735e-006 -9.53674e-007 51.6709 6.74739e-006 -7.91428e-006 8.13855 3.55271e-015 0 -0.500342 -14.3376 -0.91744 3.79736 6.30085 -1.90695e-006 89.8393 0.00537015 -30.2983 0.838766 -2.98023e-008 -8.88178e-016 -179.96 -6.30031e-005 4.46671e-005 12.1713 -0.0104313 -7.63976e-011 9.87439 1.06792e-012 4.48064e-011 -0.157495 5.09007 -6.54008 -92.297 0.199255 -166.419 -0.1575 5.09007 6.54 87.9667 0.208857 13.0641 8.29709 8.50413 3.63812e-011 -91.1799 0.148062 -178.949 13.2796 -0.00996971 -9.09495e-011 -11.9221 7.73243e-006 1.18716e-005 12.4881 -6.66637 -5.09338e-011 -23.0225 -1.98425e-005 2.45298e-006 -6.16424 -5.05314 -1.17794 -157.033 -51.3434 102.69 13.2557 1.90735e-006 -1.06581e-014 49.3693 46.8721 -107.064 12.8897 4.76837e-007 -3.57628e-007 -25.7176 -1.97879e-005 1.14014e-006 11.2622 -3.55271e-015 -1.19209e-007 -118.083 75.5481 98.3645 3.98015 -0.208661 -0.0949755 -3.12818 0.776299 -72.4428 6.57561 -1.19209e-007 -2.38419e-007 179.96 1.72754e-005 4.4627e-005 -6.16424 -5.05314 1.17789 -157.03 49.0723 -103.15 13.2557 -1.90735e-006 3.55271e-015 61.5288 -59.1187 119.47 12.8897 2.86102e-006 -2.38419e-007 -32.7311 4.27231e-006 1.50099e-006 11.2622 -1.90735e-006 -1.19209e-007 -130.285 -80.708 -122.729 3.98015 -0.208664 0.0949726 -12.3918 0.696364 65.8375 6.57562 -1.19209e-007 5.32907e-015 -9.00963e-009 -5.58797e-008 1.22227e-008 4.19292 -0.0032177 -1.20053e-010 -15.9254 9.63351e-006 2.74872e-006 4.17603 0.298255 1.16415e-010 63.9191 0.51584 -0.119529 6.53259 -3.90693 -2.55361 133.025 18.1402 163.594 6.5326 -3.90696 2.55371 -46.9761 18.1111 -16.4185 1.75934 -4.1584 -4.45634 24.8009 -39.7915 143.668 1.75932 -4.15841 4.45617 -155.177 -39.799 -36.2339 11.2964 -1.06183 2.32054 151.284 -2.34501 -90.1912 11.2964 -1.06182 -2.32035 -28.7022 -2.40423 90.131 1.31489 1.3 -2.98023e-008 -175.576 -0.0418854 -179.998 12.6869 7.10543e-015 1.11022e-016 -6.85119e-007 2.00305e-008 -8.59426e-010 
